LG_Walk_Normal12																		
version=1																		
nRows=24																		
nColumns=19																		
inDegrees=yes																		
endheader																		
time	ground_force2_vx	ground_force2_vy	ground_force2_vz	ground_force2_px	ground_force2_py	ground_force2_pz	ground_torque2_x	ground_torque2_y	ground_torque2_z	ground_force1_vx	ground_force1_vy	ground_force1_vz	ground_force1_px	ground_force1_py	ground_force1_pz	ground_torque1_x	ground_torque1_y	ground_torque1_z
6.04	9.668063	342.881622	47.873314	0.177193	0	-0.303559	7.00E-06	0.151008	3.00E-06	46.062935	593.154907	-86.724106	-0.083341	0	0.15007	-2.00E-06	-0.65689	-5.00E-06
6.041	9.828816	351.167328	47.873314	0.176618	0	-0.303559	5.00E-06	0.21475	3.00E-06	45.906513	592.615601	-86.802757	-0.083341	0	0.150497	-2.00E-06	-0.65689	-5.00E-06
6.042	9.985239	357.170746	47.951603	0.176829	0	-0.304786	3.00E-06	0.21475	3.00E-06	45.590782	588.136963	-87.116165	-0.083325	0	0.150497	-2.00E-06	-0.710047	-3.00E-06
6.043	10.452345	363.889648	48.343254	0.176829	0	-0.305289	3.00E-06	0.21475	3.00E-06	45.041492	585.384766	-87.351234	-0.083251	0	0.150497	-3.00E-06	-0.710047	-3.00E-06
6.044	10.455954	370.613525	48.421547	0.176829	0	-0.305594	7.00E-06	0.261995	3.00E-06	44.102234	582.274231	-87.586716	-0.08315	0	0.150346	-8.00E-06	-0.710047	-3.00E-06
6.045	10.772408	374.216248	49.048309	0.177792	0	-0.30622	1.10E-05	-0.030281	2.00E-06	44.102234	575.733887	-87.586716	-0.083092	0	0.149642	-8.00E-06	-0.631586	-4.00E-06
6.046	10.455954	381.621643	49.91011	0.17716	0	-0.307809	1.10E-05	0.224467	2.00E-06	43.080788	573.80365	-87.351395	-0.083092	0	0.149642	-8.00E-06	-0.768706	-3.00E-06
6.047	9.755295	384.026245	50.615082	0.17716	0	-0.307809	6.00E-06	0.199185	2.00E-06	43.080788	573.138306	-87.351395	-0.083204	0	0.149743	-5.00E-06	-0.826638	-3.00E-06
6.048	9.518855	385.75354	52.41753	0.17716	0	-0.307845	6.00E-06	0.199185	4.00E-06	42.061508	566.759155	-87.900192	-0.083204	0	0.149743	-3.00E-06	-0.826638	-3.00E-06
6.049	9.286745	390.570404	52.495579	0.177023	0	-0.308273	0.00E+00	0.190827	5.00E-06	41.357243	561.929871	-88.213837	-0.083123	0	0.149743	-3.00E-06	-0.818002	-3.00E-06
6.05	8.81531	391.778137	53.671303	0.177168	0	-0.308845	8.00E-06	0.190827	5.00E-06	40.807232	561.397095	-88.213837	-0.083123	0	0.149491	-3.00E-06	-0.818002	-3.00E-06
6.051	7.95462	395.395386	54.767967	0.177164	0	-0.308845	1.00E-06	0.244664	5.00E-06	40.257225	556.064087	-87.978928	-0.083201	0	0.150509	-6.00E-06	-0.818002	-3.00E-06
6.052	7.486793	397.794617	56.256611	0.177182	0	-0.309165	4.00E-06	0.244664	7.00E-06	39.790119	553.981873	-87.978928	-0.083201	0	0.149491	-7.00E-06	-0.854858	-1.00E-06
6.053	7.171059	400.898132	56.727119	0.177375	0	-0.309165	3.00E-06	0.244664	3.00E-06	39.080803	546.403564	-87.978928	-0.082701	0	0.149264	-6.00E-06	-0.853312	-1.00E-06
6.054	6.781083	400.898132	58.764072	0.177375	0	-0.309165	4.00E-06	0.166563	3.00E-06	38.378704	539.514832	-87.430618	-0.082701	0	0.149141	-6.00E-06	-0.853312	-1.00E-06
6.055	5.523923	402.111237	58.842728	0.177239	0	-0.309701	5.00E-06	0.268954	2.00E-06	37.750843	538.477295	-87.430618	-0.08339	0	0.149141	-3.00E-06	-0.853312	-3.00E-06
6.056	5.451844	403.826111	59.469612	0.177239	0	-0.309873	6.00E-06	0.273458	1.00E-06	37.351486	536.746826	-88.135826	-0.08339	0	0.149141	-4.00E-06	-0.85009	-1.00E-06
6.057	4.353271	404.173279	60.488152	0.177239	0	-0.309873	6.00E-06	0.33213	1.00E-06	36.491516	530.712524	-88.135826	-0.083277	0	0.148776	-1.00E-06	-1.022274	-2.00E-06
6.058	4.03826	408.298218	61.428436	0.177697	0	-0.310581	6.00E-06	0.33213	1.00E-06	36.183002	523.996277	-87.744179	-0.083159	0	0.148458	-1.00E-06	-0.759569	-2.00E-06
6.059	3.176127	410.194763	61.428558	0.177279	0	-0.31052	6.00E-06	0.33213	4.00E-06	34.852318	521.227112	-87.430931	-0.082741	0	0.148333	-1.00E-06	-0.837678	-2.00E-06
6.06	2.869052	410.36145	62.60392	0.177279	0	-0.31052	7.00E-06	0.438283	3.00E-06	34.614433	514.842957	-87.430733	-0.082741	0	0.148458	-3.00E-06	-0.837678	0
6.061	1.454025	413.113953	62.917442	0.177279	0	-0.31052	6.00E-06	0.225303	3.00E-06	34.455128	510.891541	-86.804047	-0.082893	0	0.148745	-3.00E-06	-0.993933	0
6.062	1.067656	414.152283	62.995895	0.177678	0	-0.310339	7.00E-06	0.383108	3.00E-06	34.060822	508.443359	-86.255608	-0.082893	0	0.148745	-3.00E-06	-1.012394	0.00E+00
6.063	0.514762	415.535889	63.230804	0.177889	0	-0.311514	7.00E-06	0.366931	2.00E-06	32.962971	498.80365	-86.255608	-0.082893	0	0.148183	0.00E+00	-1.012394	-1.00E-06
